<svg width="36" height="36" viewBox="0 0 36 36" fill="none" xmlns="http://www.w3.org/2000/svg">
<path d="M33 18C33 26.2845 26.2845 33 18 33C9.7155 33 3 26.2845 3 18C3 9.7155 9.7155 3 18 3C26.2845 3 33 9.7155 33 18Z" stroke="#252525" stroke-width="2.25" stroke-linecap="round" stroke-linejoin="round"/>
<path d="M18 33C22.971 33 27 26.2845 27 18C27 9.7155 22.971 3 18 3M16.5 10.5H16.5135M15 21.75C15 22.3467 14.7629 22.919 14.341 23.341C13.919 23.7629 13.3467 24 12.75 24C12.1533 24 11.581 23.7629 11.159 23.341C10.7371 22.919 10.5 22.3467 10.5 21.75C10.5 21.1533 10.7371 20.581 11.159 20.159C11.581 19.7371 12.1533 19.5 12.75 19.5C13.3467 19.5 13.919 19.7371 14.341 20.159C14.7629 20.581 15 21.1533 15 21.75Z" stroke="#252525" stroke-width="2.25" stroke-linecap="round" stroke-linejoin="round"/>
</svg>
