<svg width="36" height="36" viewBox="0 0 36 36" fill="none" xmlns="http://www.w3.org/2000/svg">
<path d="M2 15.1856H32.3713V19.5244H2V15.1856ZM17.19 2.1725e-06C16.0393 -0.00114854 14.9352 0.454864 14.1207 1.26772C13.3062 2.08058 12.848 3.18371 12.8469 4.33441C12.8457 5.48512 13.3017 6.58916 14.1146 7.40364C14.9275 8.21813 16.0306 8.67635 17.1813 8.6775C18.332 8.67865 19.436 8.22264 20.2505 7.40978C21.065 6.59692 21.5232 5.4938 21.5244 4.34309C21.5255 3.19238 21.0695 2.08835 20.2567 1.27386C19.4438 0.459373 18.3407 0.00115288 17.19 2.1725e-06ZM17.19 26.0325C16.0393 26.0313 14.9352 26.4874 14.1207 27.3002C13.3062 28.1131 12.848 29.2162 12.8469 30.3669C12.8457 31.5176 13.3017 32.6217 14.1146 33.4361C14.9275 34.2506 16.0306 34.7088 17.1813 34.71C18.332 34.7112 19.436 34.2551 20.2505 33.4423C21.065 32.6294 21.5232 31.5263 21.5244 30.3756C21.5255 29.2249 21.0695 28.1208 20.2567 27.3064C19.4438 26.4919 18.3407 26.0336 17.19 26.0325Z" fill="white"/>
</svg>
