<svg width="36" height="36" viewBox="0 0 36 36" fill="none" xmlns="http://www.w3.org/2000/svg">
<path d="M19.5 4.5C15.9196 4.5 12.4858 5.92232 9.95406 8.45406C7.42232 10.9858 6 14.4196 6 18H1.5L7.335 23.835L7.44 24.045L13.5 18H9C9 12.195 13.695 7.5 19.5 7.5C25.305 7.5 30 12.195 30 18C30 23.805 25.305 28.5 19.5 28.5C16.605 28.5 13.98 27.315 12.09 25.41L9.96 27.54C11.2099 28.7973 12.6965 29.7946 14.3339 30.4742C15.9713 31.1539 17.7271 31.5025 19.5 31.5C23.0804 31.5 26.5142 30.0777 29.0459 27.5459C31.5777 25.0142 33 21.5804 33 18C33 14.4196 31.5777 10.9858 29.0459 8.45406C26.5142 5.92232 23.0804 4.5 19.5 4.5ZM18 12V19.5L24.375 23.28L25.53 21.36L20.25 18.225V12H18Z" fill="white"/>
</svg>
