<svg width="50" height="50" viewBox="0 0 50 50" fill="none" xmlns="http://www.w3.org/2000/svg">
<path d="M15.6249 22.9167C13.611 22.9167 11.8923 22.2049 10.4687 20.7813C9.04506 19.3576 8.33325 17.6389 8.33325 15.625C8.33325 13.6111 9.04506 11.8924 10.4687 10.4688C11.8923 9.04515 13.611 8.33334 15.6249 8.33334C17.6388 8.33334 19.3576 9.04515 20.7812 10.4688C22.2048 11.8924 22.9166 13.6111 22.9166 15.625C22.9166 17.6389 22.2048 19.3576 20.7812 20.7813C19.3576 22.2049 17.6388 22.9167 15.6249 22.9167ZM15.6249 18.75C16.493 18.75 17.2312 18.4465 17.8395 17.8396C18.4478 17.2326 18.7513 16.4945 18.7499 15.625C18.7485 14.7556 18.4451 14.0181 17.8395 13.4125C17.2339 12.807 16.4958 12.5028 15.6249 12.5C14.7541 12.4972 14.0166 12.8014 13.4124 13.4125C12.8083 14.0236 12.5041 14.7611 12.4999 15.625C12.4958 16.4889 12.7999 17.2271 13.4124 17.8396C14.0249 18.4521 14.7624 18.7556 15.6249 18.75ZM34.3749 41.6667C32.361 41.6667 30.6423 40.9549 29.2187 39.5313C27.7951 38.1076 27.0832 36.3889 27.0832 34.375C27.0832 32.3611 27.7951 30.6424 29.2187 29.2188C30.6423 27.7951 32.361 27.0833 34.3749 27.0833C36.3888 27.0833 38.1076 27.7951 39.5312 29.2188C40.9548 30.6424 41.6666 32.3611 41.6666 34.375C41.6666 36.3889 40.9548 38.1076 39.5312 39.5313C38.1076 40.9549 36.3888 41.6667 34.3749 41.6667ZM34.3749 37.5C35.243 37.5 35.9812 37.1965 36.5895 36.5896C37.1978 35.9826 37.5013 35.2445 37.4999 34.375C37.4985 33.5056 37.1951 32.7681 36.5895 32.1625C35.9839 31.557 35.2457 31.2528 34.3749 31.25C33.5041 31.2472 32.7666 31.5514 32.1624 32.1625C31.5582 32.7736 31.2541 33.5111 31.2499 34.375C31.2457 35.2389 31.5499 35.9771 32.1624 36.5896C32.7749 37.2021 33.5124 37.5056 34.3749 37.5ZM11.2499 41.6667L8.33325 38.75L38.7499 8.33334L41.6666 11.25L11.2499 41.6667Z" fill="white"/>
</svg>
