<svg width="49" height="38" viewBox="0 0 49 38" fill="none" xmlns="http://www.w3.org/2000/svg">
<path fill-rule="evenodd" clip-rule="evenodd" d="M17.0063 4.9375H39.0625C40.3057 4.9375 41.498 5.43136 42.3771 6.31044C43.2562 7.18952 43.75 8.3818 43.75 9.625V28.375C43.75 29.6182 43.2562 30.8105 42.3771 31.6896C41.498 32.5686 40.3057 33.0625 39.0625 33.0625H17.0063C16.3035 33.0623 15.6097 32.9041 14.9762 32.5996C14.3428 32.2951 13.786 31.852 13.3469 31.3031L5.61256 21.6375C5.01309 20.8891 4.68644 19.9589 4.68644 19C4.68644 18.0411 5.01309 17.1109 5.61256 16.3625L13.3469 6.69688C13.7853 6.14886 14.3411 5.70627 14.9734 5.40176C15.6057 5.09725 16.2983 4.9386 17.0001 4.9375M9.67818 3.76875C10.5572 2.66984 11.6724 1.78292 12.941 1.17378C14.2096 0.564645 15.599 0.248912 17.0063 0.250003H39.0625C41.549 0.250003 43.9335 1.23772 45.6917 2.99588C47.4498 4.75403 48.4375 7.1386 48.4375 9.625V28.375C48.4375 30.8614 47.4498 33.246 45.6917 35.0041C43.9335 36.7623 41.549 37.75 39.0625 37.75H17.0063C15.6001 37.7502 14.2119 37.434 12.9444 36.8249C11.677 36.2158 10.5628 35.3293 9.68443 34.2313L1.95318 24.5656C0.688859 22.9861 0 21.0232 0 19C0 16.9768 0.688859 15.0139 1.95318 13.4344L9.67818 3.76875ZM22.7501 11.0938C22.3058 10.6798 21.7181 10.4544 21.1109 10.4651C20.5037 10.4758 19.9244 10.7218 19.495 11.1512C19.0656 11.5806 18.8196 12.1599 18.8089 12.7671C18.7982 13.3743 19.0236 13.962 19.4376 14.4063L24.0313 19L19.4376 23.5938C19.2073 23.8083 19.0226 24.0671 18.8945 24.3546C18.7664 24.6421 18.6975 24.9524 18.692 25.2671C18.6864 25.5818 18.7443 25.8944 18.8622 26.1862C18.98 26.4781 19.1555 26.7432 19.3781 26.9657C19.6006 27.1883 19.8657 27.3638 20.1576 27.4816C20.4494 27.5995 20.762 27.6574 21.0767 27.6519C21.3914 27.6463 21.7017 27.5774 21.9892 27.4493C22.2767 27.3212 22.5355 27.1365 22.7501 26.9063L27.3438 22.3125L31.9375 26.9063C32.1521 27.1365 32.4109 27.3212 32.6984 27.4493C32.9859 27.5774 33.2962 27.6463 33.6109 27.6519C33.9256 27.6574 34.2382 27.5995 34.53 27.4816C34.8219 27.3638 35.087 27.1883 35.3095 26.9657C35.5321 26.7432 35.7076 26.4781 35.8254 26.1862C35.9433 25.8944 36.0012 25.5818 35.9956 25.2671C35.9901 24.9524 35.9212 24.6421 35.7931 24.3546C35.665 24.0671 35.4803 23.8083 35.25 23.5938L30.6563 19L35.25 14.4063C35.664 13.962 35.8894 13.3743 35.8787 12.7671C35.868 12.1599 35.622 11.5806 35.1926 11.1512C34.7632 10.7218 34.1839 10.4758 33.5767 10.4651C32.9695 10.4544 32.3818 10.6798 31.9375 11.0938L27.3438 15.6875L22.7501 11.0938Z" fill="white"/>
</svg>
